<?xml version="1.0" encoding="UTF-8"?>
<svg width="316" version="1.1" xmlns="http://www.w3.org/2000/svg" height="316" viewBox="0 0 512 512" xmlns:xlink="http://www.w3.org/1999/xlink">
 <defs>
  <clipPath id="Clip0">
   <path d="M0 0 L500 0 L500 503.283 L0 503.283 L0 0 Z" transform="translate(6, 3)"/>
  </clipPath>
  <radialGradient cx="15.5634" cy="15.0997" id="Grad0" r="134.504" gradientUnits="userSpaceOnUse">
   <stop offset="0%" stop-color="#d8d8d8" stop-opacity="1"/>
   <stop offset="100%" stop-color="#707070" stop-opacity="1"/>
  </radialGradient>
  <radialGradient cx="4.6744e-05" cy="-6.14961e-05" id="Grad1" r="13.5598" gradientUnits="userSpaceOnUse">
   <stop offset="0%" stop-color="#000000" stop-opacity="1"/>
   <stop offset="100%" stop-color="#707070" stop-opacity="1"/>
  </radialGradient>
  <radialGradient cx="-4.61173e-05" cy="-2.47644e-05" id="Grad2" r="13.5598" gradientUnits="userSpaceOnUse">
   <stop offset="0%" stop-color="#000000" stop-opacity="1"/>
   <stop offset="100%" stop-color="#707070" stop-opacity="1"/>
  </radialGradient>
  <clipPath id="Clip1">
   <path d="M0 0 L39.2831 0 L39.2831 35.3664 L0 35.3664 L0 0 Z" transform="translate(419, 52.3808)"/>
  </clipPath>
 </defs>
 <g id="Background">
  <g id="Group8" clip-path="url(#Clip0)">
   <path style="fill:#0f3ebd; fill-rule:evenodd;stroke:none;" id=" path2225" d="M0 6 L6 0 L474 0 L500 26 L500 494 L494 500 L6 500 L0 494 L0 6 Z" transform="translate(6, 5.28312)"/>
   <path style="fill:#ffffff; fill-rule:evenodd;stroke:#000000; stroke-width:0.8; stroke-linecap:butt; stroke-linejoin:miter; stroke-dasharray:none;" id=" path3197" d="M0 296.055 L0 0.05482 L402 0 L402 296.055 L0 296.055 Z" transform="translate(55, 209.228)"/>
   <path style="fill:none;stroke:#da2434; stroke-width:6.05879; stroke-linecap:butt; stroke-linejoin:miter; stroke-dasharray:none;" id=" path4168" d="M0 0 L365.904 0 " transform="translate(73.0294, 268.254)"/>
   <path style="fill:none;stroke:#da2434; stroke-width:6.05879; stroke-linecap:butt; stroke-linejoin:miter; stroke-dasharray:none;" id=" path6108" d="M0 0 L365.904 0 " transform="translate(73.0294, 328.254)"/>
   <path style="fill:none;stroke:#da2434; stroke-width:6.05879; stroke-linecap:butt; stroke-linejoin:miter; stroke-dasharray:none;" id=" path6110" d="M0 0 L365.904 0 " transform="translate(73.0294, 388.254)"/>
   <path style="fill:url(#Grad0); fill-rule:evenodd;stroke:none;" id=" rect6114" d="M0 0 L269.007 0 L269.007 164.007 L0 164.007 L0 0 Z" transform="translate(125.496, 5.77958)"/>
   <path style="fill:#0f3ebd; fill-rule:evenodd;stroke:none;" id=" rect7085" d="M0 0 L65.0454 0 L65.0454 137.525 L0 137.525 L0 0 Z" transform="translate(286.2, 22.5136)"/>
   <path style="fill:none;stroke:none;" id=" path9994" d="M0 296.996 L1.6824 0 L401.247 2.82645 L401.247 296.46 " transform="translate(55, 209.287)"/>
   <path style="fill:none;stroke:none;" id=" path20723" d="M0 1.85844 L0.929219 167.26 L336.377 167.26 L336.377 0 " transform="translate(58.5408, 3)"/>
   <path style="fill:url(#Grad1); fill-rule:evenodd;stroke:none;" id=" rect21704" d="M0 0 L27.1196 0 L27.1196 27.1196 L0 27.1196 L0 0 Z" transform="translate(17.4402, 466.723)"/>
   <path style="fill:url(#Grad2); fill-rule:evenodd;stroke:none;" id=" rect23666" d="M0 0 L27.1196 0 L27.1196 27.1196 L0 27.1196 L0 0 Z" transform="translate(467.44, 466.723)"/>
   <g id="g7146" clip-path="url(#Clip1)">
    <path style="fill:none;stroke:#4781ff; stroke-width:4; stroke-linecap:butt; stroke-linejoin:miter; stroke-dasharray:none;" id=" path2290" d="M0 0 C0 31.3429 0 31.3429 0 31.3429 " transform="translate(421, 54.4043)"/>
    <path style="fill:none;stroke:#4781ff; stroke-width:4; stroke-linecap:butt; stroke-linejoin:miter; stroke-dasharray:none;" id=" path3262" d="M0 0 C0 31.3429 0 31.3429 0 31.3429 " transform="translate(434.559, 54.3808)"/>
    <path style="fill:none;stroke:#4781ff; stroke-width:4; stroke-linecap:butt; stroke-linejoin:miter; stroke-dasharray:none;" id=" path3264" d="M0 0 C16 0 16 28 0 28 " transform="translate(440.283, 56.2831)"/>
    <path style="fill:none;stroke:#4781ff; stroke-width:4; stroke-linecap:butt; stroke-linejoin:miter; stroke-dasharray:none;" id=" path4235" d="M0 0 C13 0 14 0 14 0 " transform="translate(421, 70.2831)"/>
   </g>
   <path style="fill:#0b2f93; fill-rule:evenodd;stroke:none;" id=" path6175" d="M10 0 L0 24 L4 24 L4 35 L7 38 L13 38 L16 35 L16 24 L20 24 L10 0 Z" transform="translate(27, 47.2831)"/>
   <path style="fill:#da2434; fill-rule:evenodd;stroke:none;" id=" rect12988" d="M0 0 L397.332 0 L397.332 63.1869 L0 63.1869 L0 0 Z" transform="translate(57.018, 442.521)"/>
   <path style="fill:#ffffff; fill-rule:evenodd;stroke:none;" d="M13.0637 3.15659 L10.6726 11.3433 L7.96072 11.3433 L6.52458 6.05073 L5.08116 11.3433 L2.36926 11.3433 L0 3.15659 L2.68273 3.15659 L3.93662 8.57309 L5.4894 3.15659 L7.74202 3.15659 L9.20732 8.57309 L10.4393 3.15659 L13.0637 3.15659 Z M19.3642 5.56959 L19.1528 5.56959 C19.0556 5.53557 18.9147 5.51005 18.73 5.49304 C18.5453 5.47603 18.3412 5.46753 18.1176 5.46753 C17.8503 5.46753 17.5696 5.50641 17.2756 5.58417 C16.9816 5.66193 16.696 5.75427 16.419 5.86119 L16.419 11.3433 L13.8675 11.3433 L13.8675 3.15659 L16.419 3.15659 L16.419 4.33028 C16.5357 4.22336 16.6973 4.0885 16.9038 3.92569 C17.1104 3.76288 17.2987 3.63287 17.4688 3.53567 C17.6535 3.42389 17.8685 3.3279 18.114 3.24771 C18.3594 3.16752 18.5915 3.12743 18.8102 3.12743 C18.8928 3.12743 18.9851 3.12986 19.0872 3.13472 C19.1892 3.13958 19.2816 3.14687 19.3642 3.15659 L19.3642 5.56959 Z M23.419 11.3433 L20.8675 11.3433 L20.8675 3.15659 L23.419 3.15659 L23.419 11.3433 Z M23.4919 1.99018 L20.7946 1.99018 L20.7946 0 L23.4919 0 L23.4919 1.99018 Z M29.0022 11.5037 C27.9622 11.5037 27.2052 11.2898 26.7314 10.8622 C26.2575 10.4345 26.0206 9.73463 26.0206 8.76263 L26.0206 4.93536 L25.0437 4.93536 L25.0437 3.15659 L26.0206 3.15659 L26.0206 0.816484 L28.5721 0.816484 L28.5721 3.15659 L31.0289 3.15659 L31.0289 4.93536 L28.5721 4.93536 L28.5721 7.83679 C28.5721 8.12353 28.5745 8.37382 28.5794 8.58767 C28.5843 8.80151 28.6231 8.99348 28.696 9.16358 C28.7641 9.33368 28.8844 9.46855 29.0569 9.56818 C29.2294 9.66781 29.4809 9.71762 29.8114 9.71762 C29.9475 9.71762 30.1261 9.68846 30.3472 9.63014 C30.5684 9.57182 30.7227 9.51836 30.8102 9.46976 L31.0289 9.46976 L31.0289 11.2704 C30.7518 11.3433 30.4578 11.4004 30.1468 11.4417 C29.8357 11.483 29.4542 11.5037 29.0022 11.5037 Z M36.0593 11.562 C34.5138 11.562 33.3292 11.1926 32.5054 10.4539 C31.6816 9.71519 31.2697 8.663 31.2697 7.29733 C31.2697 5.96082 31.6537 4.89405 32.4216 4.097 C33.1894 3.29996 34.2635 2.90144 35.6438 2.90144 C36.8976 2.90144 37.8405 3.23921 38.4723 3.91475 C39.1041 4.59029 39.42 5.55744 39.42 6.81619 L39.42 7.73473 L33.8285 7.73473 C33.8528 8.11381 33.933 8.43093 34.0691 8.68608 C34.2052 8.94123 34.385 9.14414 34.6086 9.2948 C34.8273 9.44546 35.0824 9.5536 35.374 9.61921 C35.6656 9.68482 35.984 9.71762 36.329 9.71762 C36.6255 9.71762 36.9171 9.68482 37.2038 9.61921 C37.4906 9.5536 37.753 9.46733 37.9911 9.36041 C38.2001 9.26807 38.3933 9.16844 38.5707 9.06152 C38.7481 8.9546 38.8927 8.85983 39.0045 8.77721 L39.2742 8.77721 L39.2742 10.884 C39.0652 10.9666 38.8745 11.0432 38.7019 11.1137 C38.5294 11.1841 38.2925 11.2558 37.9911 11.3287 C37.7141 11.4016 37.4286 11.4587 37.1346 11.5 C36.8405 11.5413 36.4821 11.562 36.0593 11.562 Z M36.9049 6.19653 C36.8904 5.65707 36.7652 5.2464 36.5295 4.96452 C36.2938 4.68264 35.9329 4.54169 35.4469 4.54169 C34.9512 4.54169 34.5636 4.68993 34.2842 4.98639 C34.0047 5.28285 33.8504 5.68623 33.8212 6.19653 L36.9049 6.19653 Z M49.0593 11.562 C47.5138 11.562 46.3292 11.1926 45.5054 10.4539 C44.6816 9.71519 44.2697 8.663 44.2697 7.29733 C44.2697 5.96082 44.6537 4.89405 45.4216 4.097 C46.1894 3.29996 47.2635 2.90144 48.6438 2.90144 C49.8976 2.90144 50.8405 3.23921 51.4723 3.91475 C52.1041 4.59029 52.42 5.55744 52.42 6.81619 L52.42 7.73473 L46.8285 7.73473 C46.8528 8.11381 46.933 8.43093 47.0691 8.68608 C47.2052 8.94123 47.385 9.14414 47.6086 9.2948 C47.8273 9.44546 48.0824 9.5536 48.374 9.61921 C48.6656 9.68482 48.984 9.71762 49.329 9.71762 C49.6255 9.71762 49.9171 9.68482 50.2038 9.61921 C50.4906 9.5536 50.753 9.46733 50.9911 9.36041 C51.2001 9.26807 51.3933 9.16844 51.5707 9.06152 C51.7481 8.9546 51.8927 8.85983 52.0045 8.77721 L52.2742 8.77721 L52.2742 10.884 C52.0652 10.9666 51.8745 11.0432 51.7019 11.1137 C51.5294 11.1841 51.2925 11.2558 50.9911 11.3287 C50.7141 11.4016 50.4286 11.4587 50.1346 11.5 C49.8405 11.5413 49.4821 11.562 49.0593 11.562 Z M49.9049 6.19653 C49.8904 5.65707 49.7652 5.2464 49.5295 4.96452 C49.2938 4.68264 48.9329 4.54169 48.4469 4.54169 C47.9512 4.54169 47.5636 4.68993 47.2842 4.98639 C47.0047 5.28285 46.8504 5.68623 46.8212 6.19653 L49.9049 6.19653 Z M61.5366 11.3433 L58.9705 11.3433 L58.9705 7.28275 C58.9705 6.95227 58.9572 6.623 58.9304 6.29495 C58.9037 5.9669 58.8539 5.72511 58.781 5.56959 C58.6935 5.38491 58.5672 5.25247 58.4019 5.17228 C58.2367 5.09209 58.0155 5.052 57.7385 5.052 C57.5295 5.052 57.3181 5.09088 57.1043 5.16864 C56.8905 5.2464 56.662 5.37033 56.419 5.54043 L56.419 11.3433 L53.8675 11.3433 L53.8675 3.15659 L56.419 3.15659 L56.419 4.06055 C56.837 3.70577 57.244 3.42875 57.6401 3.22949 C58.0362 3.03023 58.4748 2.9306 58.956 2.9306 C59.7919 2.9306 60.431 3.19425 60.8732 3.72156 C61.3155 4.24888 61.5366 5.01312 61.5366 6.01428 L61.5366 11.3433 Z M67.38 9.20732 L67.38 7.50145 C66.9475 7.54519 66.5976 7.58286 66.3303 7.61445 C66.063 7.64604 65.8005 7.708 65.543 7.80034 C65.3194 7.8781 65.1457 7.99596 65.0217 8.15391 C64.8978 8.31186 64.8358 8.52206 64.8358 8.7845 C64.8358 9.16844 64.9391 9.4321 65.1457 9.57547 C65.3522 9.71884 65.6572 9.79052 66.0606 9.79052 C66.2841 9.79052 66.5125 9.73949 66.7458 9.63743 C66.9791 9.53537 67.1905 9.392 67.38 9.20732 Z M67.38 10.4758 C67.2051 10.6216 67.0484 10.7528 66.9098 10.8694 C66.7713 10.9861 66.5854 11.1027 66.3522 11.2194 C66.1237 11.3312 65.9014 11.4162 65.6851 11.4745 C65.4688 11.5328 65.1663 11.562 64.7775 11.562 C64.0534 11.562 63.4519 11.319 62.9732 10.833 C62.4945 10.347 62.2552 9.73463 62.2552 8.99591 C62.2552 8.3884 62.3767 7.89754 62.6197 7.52332 C62.8627 7.1491 63.2126 6.85264 63.6694 6.63394 C64.1311 6.41037 64.6827 6.25485 65.3243 6.16737 C65.9658 6.07989 66.6559 6.01185 67.3946 5.96325 L67.3946 5.91951 C67.3946 5.46753 67.2282 5.15527 66.8953 4.98274 C66.5623 4.81021 66.063 4.72395 65.3972 4.72395 C65.0958 4.72395 64.7435 4.77862 64.3401 4.88797 C63.9367 4.99732 63.5431 5.13705 63.1591 5.30715 L62.9404 5.30715 L62.9404 3.33155 C63.1931 3.25865 63.6014 3.17238 64.1651 3.07275 C64.7289 2.97312 65.2975 2.92331 65.871 2.92331 C67.2804 2.92331 68.3071 3.1578 68.9511 3.62679 C69.595 4.09579 69.917 4.81143 69.917 5.77371 L69.917 11.3433 L67.38 11.3433 L67.38 10.4758 Z M77.284 7.18798 C77.284 6.37149 77.1601 5.78829 76.9122 5.43837 C76.6644 5.08845 76.2828 4.91349 75.7677 4.91349 C75.5393 4.91349 75.3121 4.94994 75.0861 5.02284 C74.8601 5.09574 74.6377 5.20509 74.419 5.35089 L74.419 9.46247 C74.5891 9.53051 74.7604 9.57668 74.933 9.60098 C75.1055 9.62528 75.2768 9.63743 75.4469 9.63743 C76.0641 9.63743 76.5246 9.43331 76.8284 9.02507 C77.1321 8.61683 77.284 8.00446 77.284 7.18798 Z M79.8938 7.13695 C79.8938 8.43944 79.5634 9.49285 78.9024 10.2972 C78.2414 11.1015 77.4225 11.5037 76.4457 11.5037 C76.0374 11.5037 75.6826 11.4575 75.3813 11.3652 C75.08 11.2728 74.7592 11.1295 74.419 10.9351 L74.3097 11.3433 L71.8675 11.3433 L71.8675 0 L74.419 0 L74.419 4.00952 C74.7933 3.68876 75.1748 3.42875 75.5636 3.22949 C75.9524 3.03023 76.4019 2.9306 76.9122 2.9306 C77.8648 2.9306 78.5999 3.30239 79.1175 4.04597 C79.6351 4.78956 79.8938 5.81988 79.8938 7.13695 Z M83.419 11.3433 L80.8675 11.3433 L80.8675 0 L83.419 0 L83.419 11.3433 Z M90.0593 11.562 C88.5138 11.562 87.3292 11.1926 86.5054 10.4539 C85.6816 9.71519 85.2697 8.663 85.2697 7.29733 C85.2697 5.96082 85.6537 4.89405 86.4216 4.097 C87.1894 3.29996 88.2635 2.90144 89.6438 2.90144 C90.8976 2.90144 91.8405 3.23921 92.4723 3.91475 C93.1041 4.59029 93.42 5.55744 93.42 6.81619 L93.42 7.73473 L87.8285 7.73473 C87.8528 8.11381 87.933 8.43093 88.0691 8.68608 C88.2052 8.94123 88.385 9.14414 88.6086 9.2948 C88.8273 9.44546 89.0824 9.5536 89.374 9.61921 C89.6656 9.68482 89.984 9.71762 90.329 9.71762 C90.6255 9.71762 90.9171 9.68482 91.2038 9.61921 C91.4906 9.5536 91.753 9.46733 91.9911 9.36041 C92.2001 9.26807 92.3933 9.16844 92.5707 9.06152 C92.7481 8.9546 92.8927 8.85983 93.0045 8.77721 L93.2742 8.77721 L93.2742 10.884 C93.0652 10.9666 92.8745 11.0432 92.7019 11.1137 C92.5294 11.1841 92.2925 11.2558 91.9911 11.3287 C91.7141 11.4016 91.4286 11.4587 91.1346 11.5 C90.8405 11.5413 90.4821 11.562 90.0593 11.562 Z M90.9049 6.19653 C90.8904 5.65707 90.7652 5.2464 90.5295 4.96452 C90.2938 4.68264 89.9329 4.54169 89.4469 4.54169 C88.9512 4.54169 88.5636 4.68993 88.2842 4.98639 C88.0047 5.28285 87.8504 5.68623 87.8212 6.19653 L90.9049 6.19653 Z" transform="translate(70.1094, 454.94)"/>
   <path style="fill:#ffffff; fill-rule:evenodd;stroke:none;" d="M13.0637 3.15659 L10.6726 11.3433 L7.96072 11.3433 L6.52458 6.05073 L5.08116 11.3433 L2.36926 11.3433 L0 3.15659 L2.68273 3.15659 L3.93662 8.57309 L5.4894 3.15659 L7.74202 3.15659 L9.20732 8.57309 L10.4393 3.15659 L13.0637 3.15659 Z M19.3642 5.56959 L19.1528 5.56959 C19.0556 5.53557 18.9147 5.51005 18.73 5.49304 C18.5453 5.47603 18.3412 5.46753 18.1176 5.46753 C17.8503 5.46753 17.5696 5.50641 17.2756 5.58417 C16.9816 5.66193 16.696 5.75427 16.419 5.86119 L16.419 11.3433 L13.8675 11.3433 L13.8675 3.15659 L16.419 3.15659 L16.419 4.33028 C16.5357 4.22336 16.6973 4.0885 16.9038 3.92569 C17.1104 3.76288 17.2987 3.63287 17.4688 3.53567 C17.6535 3.42389 17.8685 3.3279 18.114 3.24771 C18.3594 3.16752 18.5915 3.12743 18.8102 3.12743 C18.8928 3.12743 18.9851 3.12986 19.0872 3.13472 C19.1892 3.13958 19.2816 3.14687 19.3642 3.15659 L19.3642 5.56959 Z M23.419 11.3433 L20.8675 11.3433 L20.8675 3.15659 L23.419 3.15659 L23.419 11.3433 Z M23.4919 1.99018 L20.7946 1.99018 L20.7946 0 L23.4919 0 L23.4919 1.99018 Z M29.0022 11.5037 C27.9622 11.5037 27.2052 11.2898 26.7314 10.8622 C26.2575 10.4345 26.0206 9.73463 26.0206 8.76263 L26.0206 4.93536 L25.0437 4.93536 L25.0437 3.15659 L26.0206 3.15659 L26.0206 0.816484 L28.5721 0.816484 L28.5721 3.15659 L31.0289 3.15659 L31.0289 4.93536 L28.5721 4.93536 L28.5721 7.83679 C28.5721 8.12353 28.5745 8.37382 28.5794 8.58767 C28.5843 8.80151 28.6231 8.99348 28.696 9.16358 C28.7641 9.33368 28.8844 9.46855 29.0569 9.56818 C29.2294 9.66781 29.4809 9.71762 29.8114 9.71762 C29.9475 9.71762 30.1261 9.68846 30.3472 9.63014 C30.5684 9.57182 30.7227 9.51836 30.8102 9.46976 L31.0289 9.46976 L31.0289 11.2704 C30.7518 11.3433 30.4578 11.4004 30.1468 11.4417 C29.8357 11.483 29.4542 11.5037 29.0022 11.5037 Z M36.0593 11.562 C34.5138 11.562 33.3292 11.1926 32.5054 10.4539 C31.6816 9.71519 31.2697 8.663 31.2697 7.29733 C31.2697 5.96082 31.6537 4.89405 32.4216 4.097 C33.1894 3.29996 34.2635 2.90144 35.6438 2.90144 C36.8976 2.90144 37.8405 3.23921 38.4723 3.91475 C39.1041 4.59029 39.42 5.55744 39.42 6.81619 L39.42 7.73473 L33.8285 7.73473 C33.8528 8.11381 33.933 8.43093 34.0691 8.68608 C34.2052 8.94123 34.385 9.14414 34.6086 9.2948 C34.8273 9.44546 35.0824 9.5536 35.374 9.61921 C35.6656 9.68482 35.984 9.71762 36.329 9.71762 C36.6255 9.71762 36.9171 9.68482 37.2038 9.61921 C37.4906 9.5536 37.753 9.46733 37.9911 9.36041 C38.2001 9.26807 38.3933 9.16844 38.5707 9.06152 C38.7481 8.9546 38.8927 8.85983 39.0045 8.77721 L39.2742 8.77721 L39.2742 10.884 C39.0652 10.9666 38.8745 11.0432 38.7019 11.1137 C38.5294 11.1841 38.2925 11.2558 37.9911 11.3287 C37.7141 11.4016 37.4286 11.4587 37.1346 11.5 C36.8405 11.5413 36.4821 11.562 36.0593 11.562 Z M36.9049 6.19653 C36.8904 5.65707 36.7652 5.2464 36.5295 4.96452 C36.2938 4.68264 35.9329 4.54169 35.4469 4.54169 C34.9512 4.54169 34.5636 4.68993 34.2842 4.98639 C34.0047 5.28285 33.8504 5.68623 33.8212 6.19653 L36.9049 6.19653 Z M52.8938 7.13695 C52.8938 8.4443 52.5622 9.49892 51.8988 10.3008 C51.2354 11.1027 50.4177 11.5037 49.4457 11.5037 C49.0374 11.5037 48.6826 11.4575 48.3813 11.3652 C48.08 11.2728 47.7592 11.1295 47.419 10.9351 L47.419 14.3468 L44.8675 14.3468 L44.8675 3.15659 L47.419 3.15659 L47.419 4.00952 C47.7933 3.68876 48.1748 3.42875 48.5636 3.22949 C48.9524 3.03023 49.4019 2.9306 49.9122 2.9306 C50.8599 2.9306 51.5938 3.30725 52.1138 4.06055 C52.6338 4.81386 52.8938 5.83932 52.8938 7.13695 Z M50.284 7.18798 C50.284 6.39093 50.1613 5.81259 49.9159 5.45295 C49.6704 5.09331 49.2877 4.91349 48.7677 4.91349 C48.5393 4.91349 48.3121 4.94994 48.0861 5.02284 C47.8601 5.09574 47.6377 5.20509 47.419 5.35089 L47.419 9.46976 C47.5551 9.52808 47.7046 9.56939 47.8674 9.59369 C48.0302 9.61799 48.2234 9.63014 48.4469 9.63014 C49.069 9.63014 49.5307 9.42724 49.832 9.02142 C50.1334 8.61561 50.284 8.00446 50.284 7.18798 Z M59.3642 5.56959 L59.1528 5.56959 C59.0556 5.53557 58.9147 5.51005 58.73 5.49304 C58.5453 5.47603 58.3412 5.46753 58.1176 5.46753 C57.8503 5.46753 57.5696 5.50641 57.2756 5.58417 C56.9816 5.66193 56.696 5.75427 56.419 5.86119 L56.419 11.3433 L53.8675 11.3433 L53.8675 3.15659 L56.419 3.15659 L56.419 4.33028 C56.5357 4.22336 56.6973 4.0885 56.9038 3.92569 C57.1104 3.76288 57.2987 3.63287 57.4688 3.53567 C57.6535 3.42389 57.8685 3.3279 58.114 3.24771 C58.3594 3.16752 58.5915 3.12743 58.8102 3.12743 C58.8928 3.12743 58.9851 3.12986 59.0872 3.13472 C59.1892 3.13958 59.2816 3.14687 59.3642 3.15659 L59.3642 5.56959 Z M68.7262 7.25359 C68.7262 8.59982 68.358 9.66052 67.6217 10.4357 C66.8854 11.2109 65.8442 11.5985 64.498 11.5985 C63.1614 11.5985 62.1226 11.2109 61.3815 10.4357 C60.6403 9.66052 60.2697 8.59982 60.2697 7.25359 C60.2697 5.89278 60.6403 4.82722 61.3815 4.05691 C62.1226 3.28659 63.1614 2.90144 64.498 2.90144 C65.8393 2.90144 66.8794 3.28902 67.6181 4.0642 C68.3568 4.83937 68.7262 5.9025 68.7262 7.25359 Z M66.1091 7.26817 C66.1091 6.78217 66.069 6.37757 65.9888 6.05438 C65.9086 5.73119 65.798 5.47239 65.6571 5.27799 C65.5064 5.07387 65.3363 4.93171 65.1468 4.85152 C64.9572 4.77133 64.741 4.73124 64.498 4.73124 C64.2695 4.73124 64.063 4.76647 63.8783 4.83694 C63.6936 4.90741 63.5235 5.04228 63.368 5.24154 C63.2222 5.43108 63.1056 5.69109 63.0181 6.02157 C62.9306 6.35205 62.8869 6.76759 62.8869 7.26817 C62.8869 7.76875 62.9282 8.17335 63.0108 8.48196 C63.0934 8.79057 63.2003 9.03722 63.3315 9.2219 C63.4676 9.41144 63.6377 9.54995 63.8419 9.63743 C64.046 9.72491 64.272 9.76865 64.5198 9.76865 C64.7239 9.76865 64.9317 9.72491 65.1431 9.63743 C65.3545 9.54995 65.5234 9.41873 65.6498 9.24377 C65.8004 9.03479 65.9147 8.78328 65.9924 8.48925 C66.0702 8.19522 66.1091 7.78819 66.1091 7.26817 Z M73.0022 11.5037 C71.9622 11.5037 71.2052 11.2898 70.7314 10.8622 C70.2575 10.4345 70.0206 9.73463 70.0206 8.76263 L70.0206 4.93536 L69.0437 4.93536 L69.0437 3.15659 L70.0206 3.15659 L70.0206 0.816484 L72.5721 0.816484 L72.5721 3.15659 L75.0289 3.15659 L75.0289 4.93536 L72.5721 4.93536 L72.5721 7.83679 C72.5721 8.12353 72.5745 8.37382 72.5794 8.58767 C72.5843 8.80151 72.6231 8.99348 72.696 9.16358 C72.7641 9.33368 72.8844 9.46855 73.0569 9.56818 C73.2294 9.66781 73.4809 9.71762 73.8114 9.71762 C73.9475 9.71762 74.1261 9.68846 74.3472 9.63014 C74.5684 9.57182 74.7227 9.51836 74.8102 9.46976 L75.0289 9.46976 L75.0289 11.2704 C74.7518 11.3433 74.4578 11.4004 74.1468 11.4417 C73.8357 11.483 73.4542 11.5037 73.0022 11.5037 Z M80.0593 11.562 C78.5138 11.562 77.3292 11.1926 76.5054 10.4539 C75.6816 9.71519 75.2697 8.663 75.2697 7.29733 C75.2697 5.96082 75.6537 4.89405 76.4216 4.097 C77.1894 3.29996 78.2635 2.90144 79.6438 2.90144 C80.8976 2.90144 81.8405 3.23921 82.4723 3.91475 C83.1041 4.59029 83.42 5.55744 83.42 6.81619 L83.42 7.73473 L77.8285 7.73473 C77.8528 8.11381 77.933 8.43093 78.0691 8.68608 C78.2052 8.94123 78.385 9.14414 78.6086 9.2948 C78.8273 9.44546 79.0824 9.5536 79.374 9.61921 C79.6656 9.68482 79.984 9.71762 80.329 9.71762 C80.6255 9.71762 80.9171 9.68482 81.2038 9.61921 C81.4906 9.5536 81.753 9.46733 81.9911 9.36041 C82.2001 9.26807 82.3933 9.16844 82.5707 9.06152 C82.7481 8.9546 82.8927 8.85983 83.0045 8.77721 L83.2742 8.77721 L83.2742 10.884 C83.0652 10.9666 82.8745 11.0432 82.7019 11.1137 C82.5294 11.1841 82.2925 11.2558 81.9911 11.3287 C81.7141 11.4016 81.4286 11.4587 81.1346 11.5 C80.8405 11.5413 80.4821 11.562 80.0593 11.562 Z M80.9049 6.19653 C80.8904 5.65707 80.7652 5.2464 80.5295 4.96452 C80.2938 4.68264 79.9329 4.54169 79.4469 4.54169 C78.9512 4.54169 78.5636 4.68993 78.2842 4.98639 C78.0047 5.28285 77.8504 5.68623 77.8212 6.19653 L80.9049 6.19653 Z M88.8843 11.562 C88.2088 11.562 87.5903 11.477 87.029 11.3069 C86.4677 11.1367 85.9805 10.8743 85.5674 10.5195 C85.1591 10.1647 84.8408 9.71884 84.6124 9.1818 C84.3839 8.64477 84.2697 8.01175 84.2697 7.28275 C84.2697 6.50028 84.3937 5.83446 84.6415 5.28528 C84.8894 4.7361 85.2247 4.28411 85.6475 3.92933 C86.0558 3.58913 86.5357 3.33762 87.0873 3.17481 C87.6389 3.012 88.2136 2.9306 88.8114 2.9306 C89.2634 2.9306 89.7154 2.98284 90.1674 3.08733 C90.6194 3.19182 91.0738 3.35828 91.5306 3.5867 L91.5306 5.77371 L91.2026 5.77371 C91.1005 5.67651 90.9754 5.56959 90.8271 5.45295 C90.6789 5.33631 90.5173 5.22939 90.3423 5.13219 C90.1577 5.03013 89.9487 4.94386 89.7154 4.87339 C89.4821 4.80292 89.2221 4.76769 88.9354 4.76769 C88.2841 4.76769 87.7799 4.99489 87.4227 5.4493 C87.0655 5.90372 86.8869 6.51486 86.8869 7.28275 C86.8869 8.10409 87.0776 8.71646 87.4591 9.11984 C87.8406 9.52322 88.3473 9.72491 88.9791 9.72491 C89.2999 9.72491 89.5817 9.68846 89.8247 9.61556 C90.0677 9.54266 90.2767 9.45518 90.4517 9.35312 C90.6218 9.25106 90.7676 9.14535 90.8891 9.036 C91.0106 8.92665 91.1151 8.82824 91.2026 8.74076 L91.5306 8.74076 L91.5306 10.9278 C91.3848 10.9909 91.2159 11.0638 91.024 11.1465 C90.832 11.2291 90.6364 11.2971 90.4371 11.3506 C90.1892 11.4186 89.9572 11.4709 89.7409 11.5073 C89.5246 11.5438 89.2391 11.562 88.8843 11.562 Z M96.0022 11.5037 C94.9622 11.5037 94.2052 11.2898 93.7314 10.8622 C93.2575 10.4345 93.0206 9.73463 93.0206 8.76263 L93.0206 4.93536 L92.0437 4.93536 L92.0437 3.15659 L93.0206 3.15659 L93.0206 0.816484 L95.5721 0.816484 L95.5721 3.15659 L98.0289 3.15659 L98.0289 4.93536 L95.5721 4.93536 L95.5721 7.83679 C95.5721 8.12353 95.5745 8.37382 95.5794 8.58767 C95.5843 8.80151 95.6231 8.99348 95.696 9.16358 C95.7641 9.33368 95.8844 9.46855 96.0569 9.56818 C96.2294 9.66781 96.4809 9.71762 96.8114 9.71762 C96.9475 9.71762 97.1261 9.68846 97.3472 9.63014 C97.5684 9.57182 97.7227 9.51836 97.8102 9.46976 L98.0289 9.46976 L98.0289 11.2704 C97.7518 11.3433 97.4578 11.4004 97.1468 11.4417 C96.8357 11.483 96.4542 11.5037 96.0022 11.5037 Z" transform="translate(70.1094, 479.94)"/>
  </g>
 </g>
</svg>
